<svg xmlns="http://www.w3.org/2000/svg" xmlns:xlink="http://www.w3.org/1999/xlink" width="3258" height="1914" viewBox="0 0 3258 1914">
  <defs>
    <linearGradient id="linear-gradient" x1="0.5" x2="0.5" y2="1" gradientUnits="objectBoundingBox">
      <stop offset="0" stop-color="#ffe8cc"/>
      <stop offset="1" stop-color="#ffcb71"/>
    </linearGradient>
    <linearGradient id="linear-gradient-2" x1="0.5" x2="0.5" y2="1" gradientUnits="objectBoundingBox">
      <stop offset="0" stop-color="#8fff82"/>
      <stop offset="1" stop-color="#e9fbff"/>
    </linearGradient>
    <linearGradient id="linear-gradient-3" x1="0.5" x2="0.5" y2="1" gradientUnits="objectBoundingBox">
      <stop offset="0" stop-color="#82ceff"/>
      <stop offset="1" stop-color="#e9fbff"/>
    </linearGradient>
    <clipPath id="clip-Web_1920_2">
      <rect width="3258" height="1914"/>
    </clipPath>
  </defs>
  <g id="Web_1920_2" data-name="Web 1920 – 2" clip-path="url(#clip-Web_1920_2)">
    <rect width="3258" height="1914" fill="#fff"/>
    <circle id="Ellipse_15" data-name="Ellipse 15" cx="338.243" cy="338.243" r="338.243" transform="translate(218.687 590.664)" opacity="0.58" fill="url(#linear-gradient)"/>
    <rect id="Rectangle_1" data-name="Rectangle 1" width="451.651" height="107.157" rx="53.578" transform="translate(350.917 1324.819)" fill="#efaa45"/>
    <circle id="Ellipse_33" data-name="Ellipse 33" cx="338.296" cy="338.296" r="338.296" transform="translate(1888.303 605.719)" opacity="0.43" fill="url(#linear-gradient-2)"/>
    <path id="Path_114" data-name="Path 114" d="M4.1-.642A13.979,13.979,0,0,1,5.364,4.751c0,2.8-2.207,8.585-5.425,8.585-1.213,0-13.711,1.267-15.168,0S-5.567,3.792-5.567,2.048C-5.567-.751,4.1-.642,4.1-.642Z" transform="translate(2231.296 1025.403)" fill="#4e2017"/>
    <path id="Path_115" data-name="Path 115" d="M14.277-.642a22.135,22.135,0,0,1,2,8.54c0,4.432-2.862,10.785-7.959,10.785-1.921,0-16.681,4.815-18.988,2.809S-3.138,10.659-3.138,7.9C-3.138,3.466,14.277-.642,14.277-.642Z" transform="translate(2251.676 1023.486)" fill="#4e2017"/>
    <path id="Path_113" data-name="Path 113" d="M4.1-.642A13.979,13.979,0,0,1,5.364,4.751c0,2.8-2.207,8.585-5.425,8.585-1.213,0-13.711,1.267-15.168,0S-5.567,3.792-5.567,2.048C-5.567-.751,4.1-.642,4.1-.642Z" transform="translate(2358.889 1036.637)" fill="#72a498"/>
    <path id="Path_111" data-name="Path 111" d="M1958.472,551.848l-42.951,46.162v58.724l-22.142,7.381-5.134-62.575-3.851,62.575-14.12-4.493V598.01l33.373-37.224,4.493-20.537h46.53Z" transform="translate(354.568 369.359)" fill="#616161"/>
    <path id="Path_110" data-name="Path 110" d="M1958.472,551.848l-42.951,46.162v58.724l-22.142,7.381-5.134-62.575-3.851,62.575-14.12-4.493V598.01l33.373-37.224,4.493-20.537h46.53Z" transform="translate(481.359 377.384)" fill="#616161"/>
    <path id="Path_109" data-name="Path 109" d="M9.313,6.545c1.129,2.282,8.988,6.315,8.077,8.02s-7.374,1.083-11.722-1.2S0,5.439,0,5.439L6.63,0l6.245,5.439S8.185,4.264,9.313,6.545Z" transform="translate(2170.633 800.194) rotate(3)" fill="#f6d3a5"/>
    <path id="Path_77" data-name="Path 77" d="M1617.553,609.141l117.129,15.334,129-61.613-353.311-44.605-126.755,56.158Z" transform="translate(584.71 380.123)" fill="#955b22"/>
    <path id="Path_75" data-name="Path 75" d="M1705.9,835.39s3.256,16.642,5.672,22.189,21.211-5.215,29.2-12.2,7.968-11.649,2.753-15.754-20.858,0-20.858,0Z" transform="translate(455.314 254.102)" fill="#4f2c2c"/>
    <path id="Path_74" data-name="Path 74" d="M1705.9,835.39s3.256,16.642,5.672,22.189,21.211-5.215,29.2-12.2,7.968-11.649,2.753-15.754-20.858,0-20.858,0Z" transform="translate(475.671 256.072)" fill="#6f3f3f"/>
    <path id="Path_71" data-name="Path 71" d="M1629.387,761.078l52.861-12.516,11.044,52.366,25.739-10.651V712.172c0-19.526-89.644,36.39-89.644,36.39Z" transform="translate(462.542 303.758)" fill="#595959"/>
    <path id="Path_70" data-name="Path 70" d="M1633.245,783.795l47.535-35.5,11.044,52.366,25.739-10.651V711.9c0-19.526-95.606,21.885-95.606,21.885Z" transform="translate(490.932 296.804)" fill="#7c7c7c"/>
    <ellipse id="Ellipse_21" data-name="Ellipse 21" cx="325.818" cy="325.818" rx="325.818" ry="325.818" transform="translate(1059.893 286.18)" opacity="0.43" fill="url(#linear-gradient-3)"/>
    <line id="Line_2" data-name="Line 2" x1="13.213" y2="4.955" transform="translate(364.268 1141.552)" fill="none" stroke="#3e3e3e" stroke-width="0.2"/>
    <g id="Group_5" data-name="Group 5">
      <path id="Path_20" data-name="Path 20" d="M256.618,762.01l-.785,6.527,5.462,11.312,12-9.667,1.366-13.369Z" transform="translate(420.671 34.703)" fill="#e4bd96"/>
      <path id="Path_16" data-name="Path 16" d="M171.118,850.264s9.127,2.854,10.284,7.4-5.656,10.8-5.656,10.8-8.2-4.91-9.358-9.461S171.118,850.264,171.118,850.264Z" transform="translate(410.226 28.7)" fill="#ffe3be"/>
      <g id="Ellipse_1" data-name="Ellipse 1" transform="translate(630.785 696.171)" fill="#e4bd96" stroke="#717070" stroke-width="0.5">
        <ellipse cx="46.547" cy="50.271" rx="46.547" ry="50.271" stroke="none"/>
        <ellipse cx="46.547" cy="50.271" rx="46.297" ry="50.021" fill="none"/>
      </g>
      <circle id="Ellipse_2" data-name="Ellipse 2" cx="4.344" cy="4.344" r="4.344" transform="translate(686.641 740.856)" fill="#2b2b2b"/>
      <circle id="Ellipse_3" data-name="Ellipse 3" cx="4.344" cy="4.344" r="4.344" transform="translate(646.921 742.098)" fill="#2b2b2b"/>
      <ellipse id="Ellipse_4" data-name="Ellipse 4" cx="11.792" cy="7.448" rx="11.792" ry="7.448" transform="translate(664.299 770.646)" fill="#d9928d"/>
      <path id="Path_1" data-name="Path 1" d="M0,0A10.456,10.456,0,0,0,4.626,2.063a12.565,12.565,0,0,0,5.3-.821" transform="translate(667.402 760.096)" fill="none" stroke="#725f44" stroke-width="1"/>
      <path id="Path_2" data-name="Path 2" d="M291.276,703.2c-9.056,2.708-25.955,4.668-25.955,4.668s10.83-6.862,6.722-8.029-23.154,3.361-23.154,3.361,6.956-7.329,2.427-6.162-20.54,10.83-20.54,10.83,8.5-11.531,6.162-13.071-15.5,6.909-15.5,6.909l15.5-14.335,64.134,7.426S300.332,700.49,291.276,703.2Z" transform="translate(412.373 17.949)" fill="#65501f"/>
      <path id="Path_3" data-name="Path 3" d="M82.191,22.5c4.539,4.948-7.273,4.885-12.784,7.9-4.5,2.468-2.3,7.469-2.3,7.469s-18.852-1.257-37.2-2.585-33.9-1.436-33.9-1.436,2.662-5.782-2.873-8.618-17.954-4.359-13.358-8.618C-11.568,8.589,33.211-5.941,33.211-5.941S73.429,12.947,82.191,22.5Z" transform="translate(646.766 677.36)" fill="#5a93d5"/>
      <path id="Path_4" data-name="Path 4" d="M231.666,687.369s-17.7,4.273-15.226,7.613,25.136,5.745,25.136,5.745,34.221,3.232,49.267,1.867,12.066-9.624,12.066-9.624-23.844,1.4-41.655,0S231.666,687.369,231.666,687.369Z" transform="translate(411.11 17.949)" fill="#36688e"/>
      <path id="Path_6" data-name="Path 6" d="M109.168,0S103.514,8.821,98.8,8.821,90.3,0,90.3,0s-23.87.607-34.74,2.185S42.481,15.618,42.481,15.618L25.7,58.016,0,84.8A20.964,20.964,0,0,1,8.982,89.17c3.641,3.338,5.583,8.982,5.583,8.982L42.481,75.334s15.536-39.81,16.75-36.9,12.6,70.8,12.6,70.8H136.4V6.311Z" transform="matrix(0.996, 0.087, -0.087, 0.996, 585.88, 795.084)" fill="#588ac4"/>
      <path id="Path_9" data-name="Path 9" d="M195.807,833.059l15.082,54.008-7.469,2.442L189.2,835.357Z" transform="translate(407.078 56.822)" fill="#bbb"/>
      <path id="Path_10" data-name="Path 10" d="M212.239,894.349l-33.323-12.773L164.552,828.43,198.163,840.5Z" transform="translate(398.649 51.981)" fill="#484848"/>
      <path id="Path_8" data-name="Path 8" d="M200.453,857.416l-14.283,2.15-3.083.464s-1.075,7.657,7.281,9.8,13.117,2.078,22.407-1.867S224.6,856.5,224.6,856.5a31.169,31.169,0,0,0-5.379-5.221c-3.144-2.338-10.34-6.712-10.34-6.712l-11.228,2.581Z" transform="translate(409.316 57.115)" fill="#e4bd96"/>
      <path id="Path_11" data-name="Path 11" d="M164.552,828.737l7.469-1.58L204.483,838.5l-6.119,2.582Z" transform="translate(398.649 51.674)" fill="#c9c9c9"/>
      <path id="Path_12" data-name="Path 12" d="M188.2,839.63c-3.084.106-6.265-5.936-1.491-8.579s7.168,4.385,7.168,4.385" transform="translate(403.651 53.666)" fill="none" stroke="#e6e6e6" stroke-width="1"/>
      <path id="Path_13" data-name="Path 13" d="M188.2,839.63c-3.084.106-6.265-5.936-1.491-8.579s7.168,4.385,7.168,4.385" transform="translate(394.963 51.183)" fill="none" stroke="#e6e6e6" stroke-width="1"/>
      <path id="Path_14" data-name="Path 14" d="M188.2,839.639c-3.084.106-6.265-5.936-1.491-8.579s7.479,3.762,7.479,3.762" transform="translate(385.032 47.451)" fill="none" stroke="#e6e6e6" stroke-width="1"/>
      <path id="Path_15" data-name="Path 15" d="M171.118,850.264s9.127,2.854,10.284,7.4-5.656,10.8-5.656,10.8-8.2-4.91-9.358-9.461S171.118,850.264,171.118,850.264Z" transform="translate(397.814 49.801)" fill="#e4bd96"/>
      <path id="Path_17" data-name="Path 17" d="M260.639,775.579l1.44,10.078,12.649-17.379-2.468-1.44Z" transform="translate(421.83 37.121)" fill="#344c67"/>
      <path id="Path_18" data-name="Path 18" d="M15.18,7.159,14.54,16.7,0,2.189,5.158,0Z" transform="matrix(0.921, 0.391, -0.391, 0.921, 671.499, 800.591)" fill="#344c67"/>
      <path id="Path_19" data-name="Path 19" d="M262.248,773.734c-2.7.459-9.525,99.553-9.525,99.553a39.184,39.184,0,0,0,4.519,0S264.952,773.275,262.248,773.734Z" transform="translate(419.921 38.785)" fill="#4b79af"/>
      <path id="Path_7" data-name="Path 7" d="M101.711.633C86.418-3.979,75.98,18.111,75.98,18.111L58.5,62.534,0,99.431s8.921.91,14.808,3.641c4.609,2.138,5.105,7.936,5.1,10.743,0,.278-.034.688-.034.688L75.98,76.37l29.13-44.908S117,5.245,101.711.633Z" transform="matrix(0.996, 0.087, -0.087, 0.996, 620.506, 803.165)" fill="#5a93d5"/>
      <path id="Path_22" data-name="Path 22" d="M14.525,1.684C19.805,1.684,35.415-2,39.109.129,41.864,1.7,41.7,6.9,40.885,13.716c0,5.484-12.391,6.273-22.546,6.273S.184,19.2.184,13.716,4.369,1.684,14.525,1.684Z" transform="translate(677.997 1053.525)" fill="#181414"/>
      <path id="Path_23" data-name="Path 23" d="M14.525,1.684C19.805,1.684,35.415-2,39.109.129,41.864,1.7,41.7,6.9,40.885,13.716c0,5.484-12.391,6.273-22.546,6.273S.184,19.2.184,13.716,4.369,1.684,14.525,1.684Z" transform="translate(615.934 1047.319)" fill="#181414"/>
      <path id="Path_21" data-name="Path 21" d="M337.293,848.023,355.854,964.7s-1.1-.074,7.413-.955a66.6,66.6,0,0,1,17.5.955l-6.344-140.76-64.616-4.993L293.6,958.457a28.624,28.624,0,0,1,11.807,0,55.694,55.694,0,0,1,14.139,5.287Z" transform="translate(337.929 90.654)" fill="#344c67"/>
      <path id="Path_60" data-name="Path 60" d="M28.08,10.46l-4.107,7.329a24.088,24.088,0,0,0-9.79-7.112A54.635,54.635,0,0,0,0,7.716L6.968,0Z" transform="matrix(0.921, 0.391, -0.391, 0.921, 614.732, 894.804)" fill="#344c67"/>
      <path id="Path_61" data-name="Path 61" d="M28.08,10.46l-4.107,7.329a24.088,24.088,0,0,0-9.79-7.112A54.635,54.635,0,0,0,0,7.716L6.968,0Z" transform="matrix(0.921, 0.391, -0.391, 0.921, 614.732, 894.804)" fill="#344c67"/>
    </g>
    <path id="Path_35" data-name="Path 35" d="M187,882.081l8.864,20.785-24.4,9.715V893.6l11.522-13.556Z" transform="translate(301.014 109.119)" fill="#ce7f51"/>
    <path id="Path_34" data-name="Path 34" d="M129.685,922.866v28.428c0,7.107-5.214,46.576-5.214,46.576,0-.347,55.961,0,55.961,0l9.732-112.1s-15.294-3.867-19.986,0S143.936,879,143.936,879Z" transform="translate(289.678 108.866)" fill="#ff9653"/>
    <path id="Path_32" data-name="Path 32" d="M125.122,988.974c7.386-30.109,37.713-78.033,60.132-88.981s46.576,114.181,46.576,114.181a122.031,122.031,0,0,0-12.165,6.257c-5.083,3.128-9.211,9.211-9.211,9.211-.174,0-25.2-65.693-25.2-65.693L175.7,987.063s-11.123,26.59-19.986,30.066S117.736,1019.084,125.122,988.974Z" transform="translate(304.444 108.803)" fill="#a6a6a6"/>
    <g id="Path_25" data-name="Path 25" transform="translate(400.254 905.043) rotate(-9)" fill="#fceaca">
      <path d="M 56.02093505859375 102.072509765625 C 43.84472274780273 102.072509765625 29.88090896606445 95.93185424804688 18.66774749755859 85.64627075195313 C 13.15008163452148 80.58502960205078 8.564934730529785 74.71290588378906 5.40800142288208 68.66471862792969 C 3.750028133392334 65.48831176757813 2.471614599227905 62.24648284912109 1.608268022537231 59.0293083190918 C 0.7069880366325378 55.67080307006836 0.2500013709068298 52.30645370483398 0.2500013709068298 49.02972030639648 C 0.2500013709068298 42.44241333007813 1.458374738693237 36.05241394042969 3.841561317443848 30.03722763061523 C 6.143107891082764 24.22810745239258 9.437774658203125 19.01118850708008 13.63404178619385 14.53138828277588 C 17.82922744750977 10.05273532867432 22.71402740478516 6.536668300628662 28.15276145935059 4.080854892730713 C 33.78226852416992 1.538881540298462 39.76224136352539 0.2500015497207642 45.92657470703125 0.2500015497207642 C 52.09090805053711 0.2500015497207642 58.07088088989258 1.538881540298462 63.70038986206055 4.080854892730713 C 69.13912200927734 6.536668300628662 74.02391815185547 10.05273532867432 78.21910858154297 14.53138828277588 C 82.41537475585938 19.01118850708008 85.71004486083984 24.22810745239258 88.01158905029297 30.03722763061523 C 90.394775390625 36.05241394042969 91.6031494140625 42.44241333007813 91.6031494140625 49.02972030639648 C 91.6031494140625 55.98549652099609 90.92147827148438 62.61252212524414 89.57707977294922 68.72672271728516 C 88.15108489990234 75.21204376220703 86.01653289794922 80.92425537109375 83.23271179199219 85.70469665527344 C 80.23820495605469 90.84693145751953 76.52175903320313 94.84646606445313 72.18661499023438 97.59220123291016 C 67.4927978515625 100.5651245117188 62.05388259887695 102.072509765625 56.02093505859375 102.072509765625 Z" stroke="none"/>
      <path d="M 45.92657470703125 0.5 C 39.7979621887207 0.5 33.85260009765625 1.781425476074219 28.25564193725586 4.308692932128906 C 22.84708404541016 6.750892639160156 17.98905181884766 10.247802734375 13.81649780273438 14.70229339599609 C 9.641777038574219 19.15908050537109 6.363922119140625 24.34947967529297 4.073989868164063 30.12931060791016 C 1.702468872070313 36.11505126953125 0.5 42.47408294677734 0.5 49.02972030639648 C 0.5 52.28457641601563 0.9541091918945313 55.62712097167969 1.849723815917969 58.96450805664063 C 2.708351135253906 62.16408157348633 3.980094909667969 65.38878631591797 5.629631042480469 68.54904174804688 C 8.773269653320313 74.57179260253906 13.34021759033203 80.42020416259766 18.83673095703125 85.46204376220703 C 30.00500106811523 95.70644378662109 43.9056396484375 101.822509765625 56.02093505859375 101.822509765625 C 62.00576019287109 101.822509765625 67.39968109130859 100.3281784057617 72.0528564453125 97.38100433349609 C 76.35377502441406 94.65693664550781 80.04253387451172 90.68613433837891 83.01667022705078 85.57889556884766 C 85.78741455078125 80.82090759277344 87.91250610351563 75.13296508789063 89.33292388916016 68.67302703857422 C 90.67343902587891 62.57644271850586 91.3531494140625 55.96747970581055 91.3531494140625 49.02972030639648 C 91.3531494140625 42.47408294677734 90.15068054199219 36.11505126953125 87.77915954589844 30.12931060791016 C 85.48922729492188 24.34947967529297 82.21137237548828 19.15908050537109 78.03665161132813 14.70229339599609 C 73.86408996582031 10.247802734375 69.00606536865234 6.750892639160156 63.59750747680664 4.308692932128906 C 58.00054931640625 1.781425476074219 52.0551872253418 0.5 45.92657470703125 0.5 M 45.92657470703125 0 C 71.29112243652344 0 91.8531494140625 21.95134735107422 91.8531494140625 49.02972030639648 C 91.8531494140625 76.10809326171875 81.38548278808594 102.322509765625 56.02093505859375 102.322509765625 C 30.6563606262207 102.322509765625 0 76.10809326171875 0 49.02972030639648 C 0 21.95134735107422 20.56202697753906 0 45.92657470703125 0 Z" stroke="none" fill="#9a9a9a"/>
    </g>
    <ellipse id="Ellipse_6" data-name="Ellipse 6" cx="4.344" cy="2.483" rx="4.344" ry="2.483" transform="translate(450.408 944.056) rotate(-11)" fill="#2b2b2b"/>
    <ellipse id="Ellipse_7" data-name="Ellipse 7" cx="3.724" cy="2.483" rx="3.724" ry="2.483" transform="translate(483.899 936.372) rotate(-11)" fill="#2b2b2b"/>
    <path id="Path_24" data-name="Path 24" d="M0,8.481A17.084,17.084,0,0,0,4.7,9.866C7.183,10.176,5.176,0,5.176,0" transform="matrix(0.921, -0.391, 0.391, 0.921, 472.583, 953.948)" fill="none" stroke="#aa9a84" stroke-width="1"/>
    <path id="Path_26" data-name="Path 26" d="M11.792,0c6.513,0,7.726,1.105,7.726,3.162S18.3,7.448,11.792,7.448,0,5.78,0,3.724,5.279,0,11.792,0Z" transform="translate(467.686 976.531) rotate(-11)" fill="#dcbaba"/>
    <path id="Path_27" data-name="Path 27" d="M181.519,843.138a14.945,14.945,0,0,0,4.319,1.543,17.74,17.74,0,0,0,4.833,0" transform="translate(302.2 100.215)" fill="none" stroke="#9c6e1c" stroke-width="0.5"/>
    <path id="Path_28" data-name="Path 28" d="M7.595,0A10.079,10.079,0,0,1,4.011,2.635,7.271,7.271,0,0,1,0,2.635" transform="translate(454.753 950.902) rotate(-19)" fill="none" stroke="#9c6e1c" stroke-width="0.5"/>
    <path id="Path_29" data-name="Path 29" d="M182.823,827.506c-1.738,2.553-2.005,17.1-2.005,17.1s-6.684-16.176-9.358-15.013-4.144,16.484-4.144,16.484-5.565-14.655-10.561-7.487-3.489,32.712-3.489,32.712-14.024-12.419-14.024-6.51,10.428,26.336,10.428,26.336l-6.136-5.575,9.732,13.73s-8.422,7.45-17.633,6.284-14.171,0-14.171,0L109.3,859.484s-3.676-23.358,10.16-37.338,27.372-18.582,45.186-18.582,20.32,2.139,31.2,11.082,12.817,13.99,10.775,14.946-15.19-9.93-18.943-11.123.324,3.225,2.366,6.35a32.459,32.459,0,0,0,5.8,6.15S184.561,824.953,182.823,827.506Z" transform="translate(285.91 90.667)" fill="#43210b"/>
    <path id="Path_31" data-name="Path 31" d="M125.122,988.974c7.386-30.109,37.713-78.033,60.132-88.981s46.576,114.181,46.576,114.181a122.031,122.031,0,0,0-12.165,6.257c-5.083,3.128-9.211,9.211-9.211,9.211-.174,0-25.2-65.693-25.2-65.693L175.7,987.063s-11.123,26.59-19.986,30.066S117.736,1019.084,125.122,988.974Z" transform="translate(289.548 112.526)" fill="#c3c3c3"/>
    <path id="Path_36" data-name="Path 36" d="M13.478,5.16l-5.865-1.4L8.86.031S1.9-.809.207,6.272s7.559,8.395,7.559,8.395,6.051.563,6.712-2.358S13.478,5.16,13.478,5.16Z" transform="translate(500.64 1043.217) rotate(-48)" fill="#ffe6b9" stroke="#7b7b7b" stroke-width="0.5"/>
    <path id="Path_33" data-name="Path 33" d="M184.105,926.744l10.53-3.2-1.828-4.764s10.2-1.072,12.684,7.965-17.622,14.911-17.622,14.911a27.428,27.428,0,0,1-3.3-7.209A23.361,23.361,0,0,1,184.105,926.744Z" transform="translate(304.034 118.454)" fill="#fceaca" stroke="#7d7d7d" stroke-width="0.5"/>
    <path id="Path_37" data-name="Path 37" d="M207.575,824.9s-18.511-7.783-33.483,0-23.423,17.769-30.252,37.007,2.937,39.944,2.937,39.944c.587-.587-17.916,14.685-17.916,14.685S108.008,902.147,98.315,866.9s4.112-61.679,36.713-73.133S207.575,824.9,207.575,824.9Z" transform="translate(282.634 87.832)" fill="#9c5931"/>
    <path id="Path_30" data-name="Path 30" d="M154.179,900.654c9.037,22.141,6.535,33.959,11.748,37.956s33.889-4.293,33.889-4.293a18.456,18.456,0,0,0,0,9.941c1.525,5.366,6.1,11.522,6.1,11.522l-56.708,11.071s-8.863-28.745-22.593-50.382,3.163-34.793,7.908-36.826S145.142,878.513,154.179,900.654Z" transform="translate(288.924 108.847)" fill="#ce7f51"/>
    <path id="Path_39" data-name="Path 39" d="M195.667,1001.845l2.711,13.844c.678,3.461,27.959.508,37.278,0s-4.519-12.488-14.685-13.844-14.268-7.9-14.268-7.9a19.938,19.938,0,0,0-6.083,2.781A24.47,24.47,0,0,0,195.667,1001.845Z" transform="translate(324.232 130.392)" fill="#4e2b2b"/>
    <path id="Path_38" data-name="Path 38" d="M195.667,1001.845l2.711,13.844c.678,3.461,27.959.508,37.278,0s-4.519-12.488-14.685-13.844-14.268-7.9-14.268-7.9a19.938,19.938,0,0,0-6.083,2.781A24.47,24.47,0,0,0,195.667,1001.845Z" transform="translate(306.855 136.599)" fill="#6f3f3f"/>
    <circle id="Ellipse_8" data-name="Ellipse 8" cx="0.621" cy="0.621" r="0.621" transform="translate(445.837 974.213)" fill="#c54848"/>
    <circle id="Ellipse_9" data-name="Ellipse 9" cx="1.241" cy="1.241" r="1.241" transform="translate(449.561 982.902)" fill="#c54848"/>
    <circle id="Ellipse_10" data-name="Ellipse 10" cx="0.621" cy="0.621" r="0.621" transform="translate(494.246 960.559)" fill="#c54848"/>
    <circle id="Ellipse_11" data-name="Ellipse 11" cx="0.621" cy="0.621" r="0.621" transform="translate(494.246 974.213)" fill="#c54848"/>
    <circle id="Ellipse_12" data-name="Ellipse 12" cx="1.241" cy="1.241" r="1.241" transform="translate(448.32 960.559)" fill="#c54848"/>
    <circle id="Ellipse_13" data-name="Ellipse 13" cx="0.621" cy="0.621" r="0.621" transform="translate(504.176 1043.723)" fill="#c54848"/>
    <circle id="Ellipse_14" data-name="Ellipse 14" cx="0.621" cy="0.621" r="0.621" transform="translate(494.246 1056.136)" fill="#c54848"/>
    <path id="Path_40" data-name="Path 40" d="M86.1,872.31l-24.919,8.41,3.4,4.492,24.557-8.479Z" transform="translate(312.473 259.081)" fill="#464646"/>
    <path id="Path_41" data-name="Path 41" d="M68.779,872.31l-7.593,2.97,1.037,1.587,7.483-3Z" transform="translate(335.369 258.785)" fill="#464646"/>
    <line id="Line_1" data-name="Line 1" x2="1.728" y2="3.456" transform="translate(403.577 1129.991)" fill="none" stroke="#484848" stroke-width="1"/>
    <path id="Path_42" data-name="Path 42" d="M14.865-2,0,2.955" transform="translate(382.436 1135.294)" fill="none" stroke="#ff3030" stroke-width="0.5"/>
    <line id="Line_4" data-name="Line 4" transform="translate(382.436 1141.552)" fill="none" stroke="#707070" stroke-width="1"/>
    <path id="Path_43" data-name="Path 43" d="M32.02,875.807l-10.695,6.983L29.212,888l8.556-5.214Z" transform="translate(315.685 274.425)" fill="none" stroke="#707070" stroke-width="0.5"/>
    <line id="Line_5" data-name="Line 5" y1="4.965" x2="7.448" transform="translate(340.951 1152.334)" fill="none" stroke="#707070" stroke-width="0.5"/>
    <path id="Path_44" data-name="Path 44" d="M32.02,875.807l-10.695,6.983L29.212,888l8.556-5.214Z" transform="translate(315.685 274.425)" fill="#fff" stroke="#707070" stroke-width="0.5"/>
    <line id="Line_6" data-name="Line 6" y1="4.965" x2="7.448" transform="translate(340.951 1152.334)" fill="none" stroke="#707070" stroke-width="0.5"/>
    <path id="Path_45" data-name="Path 45" d="M8.364,0,0,5.461,6.168,9.538l6.691-4.077Z" transform="matrix(-0.788, 0.616, -0.616, -0.788, 371.302, 1159.765)" fill="none" stroke="#707070" stroke-width="0.5"/>
    <line id="Line_7" data-name="Line 7" y1="3.883" x2="5.824" transform="matrix(-0.788, 0.616, -0.616, -0.788, 367.862, 1160.367)" fill="none" stroke="#707070" stroke-width="0.5"/>
    <path id="Path_46" data-name="Path 46" d="M8.364,0,0,5.461,6.168,9.538l6.691-4.077Z" transform="matrix(-0.788, 0.616, -0.616, -0.788, 371.302, 1159.765)" fill="#fff" stroke="#707070" stroke-width="0.5"/>
    <line id="Line_8" data-name="Line 8" y1="3.883" x2="5.824" transform="matrix(-0.788, 0.616, -0.616, -0.788, 367.862, 1160.367)" fill="none" stroke="#707070" stroke-width="0.5"/>
    <path id="Path_47" data-name="Path 47" d="M38,877.323c-.291-.568-.533-1.49-2.077-1.108s-2.969,1.236-2.382,1.939,2.3.866,3.545.332S38.291,877.891,38,877.323Z" transform="translate(313.634 279.467)" fill="#bdb288"/>
    <path id="Path_48" data-name="Path 48" d="M37.677,877.254c-.291-.568-.1-1.1-1.641-.715s-1.5.571-.914,1.274.4,1.138,1.641.6S37.968,877.822,37.677,877.254Z" transform="translate(325.129 284.5)" fill="#bdb288"/>
    <g id="Group_4" data-name="Group 4" transform="translate(1168.957 493.848)">
      <path id="Path_50" data-name="Path 50" d="M715.3,371.856l27.627-45.387h17.76c4.44,0-6.907,34.04-9.209,45.387s90.116,20.72,117.743,27.627-52.787,45.88-70.383,61.174-90.116-15.787-90.116-15.787l-13.156-55.911Z" transform="translate(-567.3 -229.868)" fill="#fceaca" stroke="#9f9f9f" stroke-width="1"/>
      <path id="Path_49" data-name="Path 49" d="M614.587,331.148c151.947,14.471,138.792,21.707,138.792,21.707s-13.813,33.547-21.049,47.36,8.551,46.045,8.551,46.045L594.2,425.211Z" transform="translate(-594.195 -228.627)" fill="#ce7f51"/>
      <ellipse id="Ellipse_16" data-name="Ellipse 16" cx="2.531" cy="2.531" rx="2.531" ry="2.531" transform="translate(180.692 206.09)" fill="#c54848"/>
      <ellipse id="Ellipse_17" data-name="Ellipse 17" cx="1.265" cy="1.265" rx="1.265" ry="1.265" transform="translate(217.386 222.539)" fill="#c54848"/>
      <ellipse id="Ellipse_18" data-name="Ellipse 18" cx="1.265" cy="1.265" rx="1.265" ry="1.265" transform="translate(157.917 208.62)" fill="#c54848"/>
      <ellipse id="Ellipse_19" data-name="Ellipse 19" cx="1.265" cy="1.265" rx="1.265" ry="1.265" transform="translate(208.529 227.6)" fill="#c54848"/>
      <ellipse id="Ellipse_20" data-name="Ellipse 20" cx="2.531" cy="2.531" rx="2.531" ry="2.531" transform="translate(259.142 195.967)" fill="#c54848"/>
      <g id="Group_3" data-name="Group 3" transform="translate(232.393 159.906)">
        <line id="Line_9" data-name="Line 9" x1="26.703" y2="10.013" transform="translate(0 23.365)" fill="none" stroke="#3e3e3e" stroke-width="0.2"/>
        <path id="Path_51" data-name="Path 51" d="M111.544,872.31,61.185,889.3l6.879,9.078,49.626-17.135Z" transform="translate(-42.209 -869.481)" fill="#464646"/>
        <path id="Path_52" data-name="Path 52" d="M76.531,872.31l-15.345,6,2.1,3.207L78.4,875.467Z" transform="translate(4.062 -870.077)" fill="#464646"/>
        <line id="Line_10" data-name="Line 10" x2="3.492" y2="6.984" transform="translate(79.439)" fill="none" stroke="#484848" stroke-width="1"/>
        <path id="Path_53" data-name="Path 53" d="M30.04-2,0,8.013" transform="translate(36.716 8.676)" fill="none" stroke="#ff3030" stroke-width="0.5"/>
      </g>
      <line id="Line_11" data-name="Line 11" transform="translate(272.905 137.719)" fill="none" stroke="#707070" stroke-width="1"/>
      <path id="Path_54" data-name="Path 54" d="M42.938,875.806,21.325,889.918l15.94,10.536,17.29-10.536Z" transform="translate(159.778 -720.548)" fill="none" stroke="#707070" stroke-width="0.5"/>
      <line id="Line_12" data-name="Line 12" y1="10.034" x2="15.051" transform="translate(189.068 159.506)" fill="none" stroke="#707070" stroke-width="0.5"/>
      <path id="Path_55" data-name="Path 55" d="M42.938,875.806,21.325,889.918l15.94,10.536,17.29-10.536Z" transform="translate(159.778 -720.548)" fill="#fff" stroke="#707070" stroke-width="0.5"/>
      <line id="Line_13" data-name="Line 13" y1="10.034" x2="15.051" transform="translate(189.068 159.506)" fill="none" stroke="#707070" stroke-width="0.5"/>
      <path id="Path_56" data-name="Path 56" d="M16.9,0,0,11.036l12.465,8.24,13.522-8.24Z" transform="matrix(-0.788, 0.616, -0.616, -0.788, 250.405, 174.525)" fill="none" stroke="#707070" stroke-width="0.5"/>
      <line id="Line_14" data-name="Line 14" y1="7.847" x2="11.77" transform="matrix(-0.788, 0.616, -0.616, -0.788, 243.451, 175.741)" fill="none" stroke="#707070" stroke-width="0.5"/>
      <path id="Path_57" data-name="Path 57" d="M16.9,0,0,11.036l12.465,8.24,13.522-8.24Z" transform="matrix(-0.788, 0.616, -0.616, -0.788, 250.405, 174.525)" fill="#fff" stroke="#707070" stroke-width="0.5"/>
      <line id="Line_15" data-name="Line 15" y1="7.847" x2="11.77" transform="matrix(-0.788, 0.616, -0.616, -0.788, 243.451, 175.741)" fill="none" stroke="#707070" stroke-width="0.5"/>
      <path id="Path_58" data-name="Path 58" d="M42.69,878.546c-.588-1.147-1.076-3.012-4.2-2.239s-6,2.5-4.814,3.918,4.647,1.751,7.164.672S43.278,879.693,42.69,878.546Z" transform="translate(167.968 -710.035)" fill="#bdb288"/>
      <path id="Path_59" data-name="Path 59" d="M40.671,878.117c-.588-1.148-.2-2.218-3.317-1.445s-3.034,1.154-1.847,2.575.8,2.3,3.317,1.221S41.258,879.264,40.671,878.117Z" transform="translate(192.563 -699.571)" fill="#bdb288"/>
      <path id="Path_62" data-name="Path 62" d="M165.953,88.749s-24.895,30.9-39.96,41.327-20.3.39-20.3.39,13.536-26.7,15.838-37.312S32.518,72.384,6.845,72.745,33.127,12.972,73.252,2.356,172.53,20.44,172.53,20.44l13.156,52.309Z" transform="matrix(0.921, -0.391, 0.391, 0.921, 153.549, 105.637)" fill="#e4bd96" stroke="#6c6c6c" stroke-width="1"/>
      <path id="Path_63" data-name="Path 63" d="M139.078,106.193C-12.869,92.843.287,86.168.287,86.168S14.1,55.22,21.336,42.477,12.784,0,12.784,0L159.469,19.418Z" transform="matrix(0.921, -0.391, 0.391, 0.921, 304.502, 62.31)" fill="#5a93d5"/>
      <path id="Path_64" data-name="Path 64" d="M80.4,76.65,55.806,92.035A138.017,138.017,0,0,0,35.443,44.061C19.446,20.619,0,20.628,0,20.628L29.172,0S49.007,13.705,61.813,32.868,80.4,76.65,80.4,76.65Z" transform="matrix(0.921, 0.391, -0.391, 0.921, 317.27, 38.451)" fill="#344c67"/>
    </g>
    <path id="Path_66" data-name="Path 66" d="M1633.914,452.155c8.51,16.936,8.943,41.681,0,60.132s-35.773,13.673-35.773,13.673c0-.311,26.259-75.67,26.259-75.67Z" transform="translate(510.699 380.43)" fill="#fceaca" stroke="#707070" stroke-width="0.5"/>
    <path id="Path_76" data-name="Path 76" d="M1684.392,599.716h23.7c5.925,0,15.644,3.761,12.194,6.833S1694.293,612,1694.293,612Z" transform="translate(518.076 365.637)" fill="#fceaca" stroke="#707070" stroke-width="0.5"/>
    <path id="Path_78" data-name="Path 78" d="M1828.067,646.469,1823.9,750.281l10.59-5.776,3.53-101.083Z" transform="translate(490.52 357.004)" fill="#955b22"/>
    <path id="Path_79" data-name="Path 79" d="M1828.067,646.469,1823.9,750.281l10.59-5.776,3.53-101.083Z" transform="translate(610.089 300.029)" fill="#955b22"/>
    <path id="Path_80" data-name="Path 80" d="M1828.067,646.469,1823.9,750.281l10.59-5.776,3.53-101.083Z" transform="translate(142.247 308.054)" fill="#955b22"/>
    <path id="Path_100" data-name="Path 100" d="M6.052,0S1.338,2.264.648,6.427s-1.022,9.859,0,14.022,8.618,3.067,8.618,3.067l2.483-9.64Z" transform="translate(2257.164 785.768) rotate(13)" fill="#545454"/>
    <path id="Path_89" data-name="Path 89" d="M0,28.387l44.224,4.994L67.713,3.456,30.687,0Z" transform="translate(2362.242 929.232) rotate(3)" fill="#fff" stroke="#707070" stroke-width="1"/>
    <path id="Path_83" data-name="Path 83" d="M3.159,4.915,0,21.722,3.159,43.16l19.3-4.405L19.918,24.931,22.463,0Z" transform="translate(2404.76 836.294) rotate(3)" fill="#ffdcae"/>
    <path id="Path_84" data-name="Path 84" d="M36.78,0c18.95,0,34.312,16.076,34.312,35.906S55.729,71.812,36.78,71.812,0,55.737,0,35.906,17.83,0,36.78,0Z" transform="translate(2384.832 777.903) rotate(3)" fill="#ffdcae"/>
    <path id="Path_81" data-name="Path 81" d="M40.993,14.8,38.583.159s-15.394-2.2-20.945,9.777S0,56.316,0,56.316l16.045,27.6,9.627-7.06L16.045,56.316l9.627-33.053v42.68H76.695V23.264S84.6,11.724,81.248,5.948,57.59.159,57.59.159L54.095,14.8Z" transform="translate(2366.272 852.335) rotate(3)" fill="#72a498"/>
    <path id="Path_82" data-name="Path 82" d="M23.356,18.81l5.316,23.545L0,71.217l15.951,13.1,31.14-38.926S34.606,7.8,28.672,1.151,23.356,18.81,23.356,18.81Z" transform="translate(2418.525 859.878) rotate(3)" fill="#72a498"/>
    <ellipse id="Ellipse_22" data-name="Ellipse 22" cx="2.809" cy="2.809" rx="2.809" ry="2.809" transform="translate(2423.262 806.828) rotate(3)" fill="#2b2b2b"/>
    <ellipse id="Ellipse_23" data-name="Ellipse 23" cx="2.809" cy="2.809" rx="2.809" ry="2.809" transform="translate(2397.576 806.285) rotate(3)" fill="#2b2b2b"/>
    <ellipse id="Ellipse_24" data-name="Ellipse 24" cx="7.623" cy="4.815" rx="7.623" ry="4.815" transform="translate(2407.829 825.305) rotate(3)" fill="#d9928d"/>
    <path id="Path_85" data-name="Path 85" d="M0,0A6.759,6.759,0,0,0,2.991,1.333,8.123,8.123,0,0,0,6.42.8" transform="translate(2410.189 818.598) rotate(3)" fill="none" stroke="#725f44" stroke-width="1"/>
    <path id="Path_86" data-name="Path 86" d="M24.5,34.52l26.087-1.473L55.084,23.1v9.948H75.3s2.647,26.233,3.53,34.978S68.562,88.563,68.562,88.563L97.443,79.9l6.1-41.4c1.524-10.349-7.864-27.528-34.978-35.62S22.752,4.431,16.576,23.1,9.9,52.106,7.415,64.541,0,78.485,0,78.485L30.785,86.9V78.485S21.6,70.771,20.122,59.058,24.5,34.52,24.5,34.52Z" transform="translate(2367.046 759.995) rotate(3)" fill="#a2a2a2"/>
    <path id="Path_87" data-name="Path 87" d="M9.531,7.977C8.211,10.758-.98,15.674.086,17.752s8.623,1.32,13.707-1.461,6.629-9.663,6.629-9.663L12.67,0l-7.3,6.629S10.851,5.2,9.531,7.977Z" transform="translate(2405.169 932.607) rotate(3)" fill="#ffdcae"/>
    <path id="Path_88" data-name="Path 88" d="M9.313,6.545c1.129,2.282,8.988,6.315,8.077,8.02s-7.374,1.083-11.722-1.2S0,5.439,0,5.439L6.63,0l6.245,5.439S8.185,4.264,9.313,6.545Z" transform="translate(2379.71 930.622) rotate(3)" fill="#ffdcae"/>
    <line id="Line_16" data-name="Line 16" x2="30.494" y2="3.21" transform="translate(2371.88 951.591) rotate(3)" fill="none" stroke="#707070" stroke-width="1"/>
    <line id="Line_17" data-name="Line 17" x2="24.877" y2="2.407" transform="translate(2378.585 946.317) rotate(3)" fill="none" stroke="#707070" stroke-width="1"/>
    <line id="Line_18" data-name="Line 18" x2="20.062" y2="1.605" transform="translate(2382.382 950.534) rotate(3)" fill="none" stroke="#707070" stroke-width="1"/>
    <path id="Path_90" data-name="Path 90" d="M0,28.387l44.224,4.994L67.713,3.456,30.687,0Z" transform="translate(2235.625 922.596) rotate(3)" fill="#fff" stroke="#707070" stroke-width="1"/>
    <path id="Path_91" data-name="Path 91" d="M3.159,4.915,0,21.722,3.159,43.16l19.3-4.405L19.918,24.931,22.463,0Z" transform="translate(2278.143 829.658) rotate(3)" fill="#c0a27a"/>
    <path id="Path_92" data-name="Path 92" d="M36.78,0c18.95,0,34.312,17.437,34.312,38.946S55.729,77.892,36.78,77.892,0,60.455,0,38.946,17.83,0,36.78,0Z" transform="translate(2258.533 765.196) rotate(3)" fill="#c0a27a"/>
    <path id="Path_93" data-name="Path 93" d="M49.082,8.724,38.583.159s-15.394-2.2-20.945,9.777S0,56.316,0,56.316l16.045,27.6,9.627-7.06L16.045,56.316l9.627-33.053v42.68H76.695V23.264S84.6,11.724,81.248,5.948,57.59.159,57.59.159Z" transform="translate(2239.655 845.7) rotate(3)" fill="#225162"/>
    <path id="Path_94" data-name="Path 94" d="M23.356,18.81l5.316,23.545L0,71.217l15.951,13.1,31.14-38.926S34.606,7.8,28.672,1.151,23.356,18.81,23.356,18.81Z" transform="translate(2291.908 853.242) rotate(3)" fill="#225162"/>
    <ellipse id="Ellipse_25" data-name="Ellipse 25" cx="2.809" cy="2.809" rx="2.809" ry="2.809" transform="translate(2296.645 800.192) rotate(3)" fill="#2b2b2b"/>
    <ellipse id="Ellipse_26" data-name="Ellipse 26" cx="2.809" cy="2.809" rx="2.809" ry="2.809" transform="translate(2267.753 799.482) rotate(3)" fill="#2b2b2b"/>
    <ellipse id="Ellipse_27" data-name="Ellipse 27" cx="7.623" cy="4.815" rx="7.623" ry="4.815" transform="translate(2280.159 823.435) rotate(3)" fill="#8f4c47"/>
    <path id="Path_95" data-name="Path 95" d="M3.646,0S-1.284,13.561.321,13.762,8.7,11.634,8.7,11.634" transform="translate(2283.354 803.608) rotate(3)" fill="none" stroke="#544734" stroke-width="1"/>
    <path id="Path_97" data-name="Path 97" d="M9.531,7.977C8.211,10.758-.98,15.674.086,17.752s8.623,1.32,13.707-1.461,6.629-9.663,6.629-9.663L12.67,0l-7.3,6.629S10.851,5.2,9.531,7.977Z" transform="translate(2278.552 925.971) rotate(3)" fill="#c0a27a"/>
    <path id="Path_98" data-name="Path 98" d="M9.313,6.545c1.129,2.282,8.988,6.315,8.077,8.02s-7.374,1.083-11.722-1.2S0,5.439,0,5.439L6.63,0l6.245,5.439S8.185,4.264,9.313,6.545Z" transform="translate(2253.093 923.986) rotate(3)" fill="#c0a27a"/>
    <line id="Line_19" data-name="Line 19" x2="30.494" y2="3.21" transform="translate(2245.263 944.955) rotate(3)" fill="none" stroke="#707070" stroke-width="1"/>
    <line id="Line_20" data-name="Line 20" x2="24.877" y2="2.407" transform="translate(2251.968 939.681) rotate(3)" fill="none" stroke="#707070" stroke-width="1"/>
    <line id="Line_21" data-name="Line 21" x2="20.062" y2="1.605" transform="translate(2255.765 943.898) rotate(3)" fill="none" stroke="#707070" stroke-width="1"/>
    <path id="Path_99" data-name="Path 99" d="M6.636.46C3.3-1.4.963,2.724.133,6.887S2.594,17.038,3.824,21.2,10.5,23.976,10.5,23.976s2.724-2.447,1.758-8.326S9.975,2.322,6.636.46Z" transform="translate(2318.85 789.382) rotate(3)" fill="#545454"/>
    <g id="Ellipse_28" data-name="Ellipse 28" transform="translate(2291.245 795.891) rotate(3)" fill="none" stroke="#404040" stroke-width="1">
      <ellipse cx="8.426" cy="6.821" rx="8.426" ry="6.821" stroke="none"/>
      <ellipse cx="8.426" cy="6.821" rx="7.926" ry="6.321" fill="none"/>
    </g>
    <g id="Ellipse_29" data-name="Ellipse 29" transform="translate(2263.956 795.265) rotate(3)" fill="none" stroke="#404040" stroke-width="1">
      <ellipse cx="8.426" cy="6.821" rx="8.426" ry="6.821" stroke="none"/>
      <ellipse cx="8.426" cy="6.821" rx="7.926" ry="6.321" fill="none"/>
    </g>
    <line id="Line_22" data-name="Line 22" x1="12.037" transform="translate(2279.268 802.094) rotate(3)" fill="none" stroke="#404040" stroke-width="1"/>
    <line id="Line_23" data-name="Line 23" y1="4.012" x2="20.062" transform="translate(2307.526 799.557) rotate(3)" fill="none" stroke="#3e3a3a" stroke-width="1"/>
    <line id="Line_24" data-name="Line 24" x1="5.617" y1="4.012" transform="translate(2258.685 796.194) rotate(3)" fill="none" stroke="#3a3a3a" stroke-width="1"/>
    <path id="Path_101" data-name="Path 101" d="M0,28.387l44.224,4.994L67.713,3.456,30.687,0Z" transform="translate(2093.782 915.163) rotate(3)" fill="#fff" stroke="#707070" stroke-width="1"/>
    <path id="Path_102" data-name="Path 102" d="M3.159,4.915,0,21.722,3.159,43.16l19.3-4.405L19.918,24.931,22.463,0Z" transform="translate(2136.3 822.225) rotate(3)" fill="#f6d3a5"/>
    <path id="Path_103" data-name="Path 103" d="M31.868,0C50.818,0,66.18,16.076,66.18,35.906S50.818,71.812,31.868,71.812,0,57.085,0,37.254,12.918,0,31.868,0Z" transform="translate(2121.277 764.091) rotate(3)" fill="#f6d3a5"/>
    <path id="Path_104" data-name="Path 104" d="M40.993,14.8,38.583.159s-15.394-2.2-20.945,9.777S0,56.316,0,56.316l16.045,27.6,9.627-7.06L16.045,56.316l9.627-33.053v42.68H76.695V23.264S84.6,11.724,81.248,5.948,57.59.159,57.59.159L54.095,14.8Z" transform="translate(2097.812 838.266) rotate(3)" fill="#afe2ef"/>
    <path id="Path_105" data-name="Path 105" d="M23.356,18.81l5.316,23.545L0,71.217l15.951,13.1,31.14-38.926S34.606,7.8,28.672,1.151,23.356,18.81,23.356,18.81Z" transform="translate(2150.065 845.808) rotate(3)" fill="#afe2ef"/>
    <ellipse id="Ellipse_30" data-name="Ellipse 30" cx="2.809" cy="2.809" rx="2.809" ry="2.809" transform="translate(2162.024 793.561) rotate(3)" fill="#2b2b2b"/>
    <ellipse id="Ellipse_31" data-name="Ellipse 31" cx="2.809" cy="2.809" rx="2.809" ry="2.809" transform="translate(2134.733 793.018) rotate(3)" fill="#2b2b2b"/>
    <ellipse id="Ellipse_32" data-name="Ellipse 32" cx="7.623" cy="4.815" rx="7.623" ry="4.815" transform="translate(2143.382 814.445) rotate(3)" fill="#d9928d"/>
    <path id="Path_106" data-name="Path 106" d="M0,0A6.759,6.759,0,0,0,2.991,1.333,8.123,8.123,0,0,0,6.42.8" transform="translate(2148.149 806.134) rotate(3)" fill="none" stroke="#725f44" stroke-width="1"/>
    <path id="Path_107" data-name="Path 107" d="M21.754,42.414,22.11,38.5,41.288,34.52,63.5,23.1l4.656,9.948s2.816,29.068,3.7,37.813-13.1,42.154-13.1,42.154l22.786-2.468S94.875,48.851,96.4,38.5,88.536,10.975,61.422,2.883,15.611,4.431,9.436,23.1,2.762,52.106.275,64.541s12.707,50.371,12.707,50.371l13.306-11.2L23.645,78.485s-3.276-3.206-4.758-14.919A42.677,42.677,0,0,1,21.754,42.414Z" transform="translate(2105.717 746.299) rotate(3)" fill="#e0c691" stroke="#828282" stroke-width="0.5"/>
    <path id="Path_108" data-name="Path 108" d="M9.531,7.977C8.211,10.758-.98,15.674.086,17.752s8.623,1.32,13.707-1.461,6.629-9.663,6.629-9.663L12.67,0l-7.3,6.629S10.851,5.2,9.531,7.977Z" transform="translate(2136.709 918.538) rotate(3)" fill="#f6d3a5"/>
    <line id="Line_25" data-name="Line 25" x2="30.494" y2="3.21" transform="translate(2103.42 937.521) rotate(3)" fill="none" stroke="#707070" stroke-width="1"/>
    <line id="Line_26" data-name="Line 26" x2="24.877" y2="2.407" transform="translate(2110.125 932.248) rotate(3)" fill="none" stroke="#707070" stroke-width="1"/>
    <line id="Line_27" data-name="Line 27" x2="20.062" y2="1.605" transform="translate(2113.922 936.464) rotate(3)" fill="none" stroke="#707070" stroke-width="1"/>
    <path id="Path_67" data-name="Path 67" d="M1579.992,574.442,1610.918,584l-6.077,117.807-24.849,18.059h-90.6V579.221Z" transform="translate(550.007 343.058)" fill="#ffbc58"/>
    <path id="Path_65" data-name="Path 65" d="M1580.759,407s-32.507-29.214-59.467-19.784-33.284,20.339-48.372,57.505-5.325,100.739-5.325,100.739,6.435-24.408,14.2-24.408,16.864,24.408,16.864,24.408,1.442-27.515,7.1-24.408,15.532,36.834,15.532,36.834,8.432-31.952,19.083-33.284,34.615,33.284,34.615,33.284V476.678c0-20.3,9.319-37.611,12.426-50.147A18.9,18.9,0,0,0,1580.759,407Z" transform="translate(558.557 407.982)" fill="#43210b" stroke="#707070" stroke-width="1"/>
    <path id="Path_68" data-name="Path 68" d="M1444.214,612.287l11.982,118.49,114.94,20.414L1560.588,632.5Z" transform="translate(565.518 330.064)" fill="#b18253"/>
    <path id="Path_69" data-name="Path 69" d="M1715.891,641.594S1665.3,671.1,1658.2,665.263s-18.57-63.525-18.57-63.525,4.353-7.981,10.241-11.224,17.41-7.732,21.848,11.224c2.086,8.909,3.789,34.992,3.789,34.992l32.84-10.051Z" transform="translate(498.425 338.541)" fill="#ce7f51"/>
    <path id="Path_72" data-name="Path 72" d="M1570.746,797.478l42.157-28.4v81.212l-11.094,7.988v-60.8l-26.627,18.639v58.135l-12.426,9.763v-67.9l-90.088-15.089v57.248l-10.207,8.876V780.614Z" transform="translate(559.253 276.233)" fill="#b18253"/>
    <path id="Path_73" data-name="Path 73" d="M1529.366,819.408v38.609l9.763-4.882c.444-.444,0-42.159,0-42.159Z" transform="translate(536.282 261.847)" fill="#b18253"/>
    <path id="Path_112" data-name="Path 112" d="M14.277-.642a22.135,22.135,0,0,1,2,8.54c0,4.432-2.862,10.785-7.959,10.785-1.921,0-16.681,4.815-18.988,2.809S-3.138,10.659-3.138,7.9C-3.138,3.466,14.277-.642,14.277-.642Z" transform="translate(2379.268 1034.721)" fill="#72a498"/>
    <text id="Issued_Summons" data-name="Issued Summons" transform="translate(403.226 1350.501)" fill="#fff" font-size="40" font-family="OpenSans-Bold, Open Sans" font-weight="700"><tspan x="0" y="43">Issued Summons</tspan></text>
    <text id="Individuals_found_in_possession_of_small_quantities_of_drugs_are_issued_summons._These_individuals_are_not_arrested_for_illicit_drug_use." data-name="Individuals found in possession of small quantities of drugs are issued summons. These individuals are not arrested for illicit drug use." transform="translate(298.896 1466.514)" fill="#313131" font-size="32" font-family="OpenSans, Open Sans"><tspan x="27.274" y="34">Individuals found in possession of </tspan><tspan x="15.696" y="77">small quantities of drugs are issued </tspan><tspan x="9.055" y="120">summons. These individuals are </tspan><tspan y="120" font-family="OpenSans-Bold, Open Sans" font-weight="700">not </tspan><tspan x="79.938" y="163">arrested for illicit drug use.</tspan></text>
    <rect id="Rectangle_2" data-name="Rectangle 2" width="451.651" height="107.157" rx="53.578" transform="translate(1159.462 997.15)" fill="#5a93d5"/>
    <text id="Confiscation" transform="translate(1183.373 1021.947)" fill="#fff" font-size="40" font-family="OpenSans-Bold, Open Sans" font-weight="700"><tspan x="77.631" y="43">Confiscation</tspan></text>
    <text id="The_drugs_that_are_found_on_the_user_are_then_confiscated_and_are_then_measured_and_analysed_to_check_its_amount_type_and_toxicity." data-name="The drugs that are found on the user are then confiscated and are then measured and analysed to check its amount, type and toxicity." transform="translate(1091.271 1138.845)" fill="#313131" font-size="32" font-family="OpenSans, Open Sans"><tspan x="18.876" y="34">The drugs that are found on the user </tspan><tspan x="42.219" y="77">are then confiscated and are then </tspan><tspan x="27.977" y="120">measured and analysed to check its </tspan><tspan x="100.501" y="163">amount, type and toxicity.</tspan></text>
    <rect id="Rectangle_3" data-name="Rectangle 3" width="451.651" height="107.157" rx="53.578" transform="translate(2022.028 1324.819)" fill="#5ad5ab"/>
    <text id="Interview" transform="translate(2039.74 1346.959)" fill="#fff" font-size="40" font-family="OpenSans-Bold, Open Sans" font-weight="700"><tspan x="106.596" y="43">Interview</tspan></text>
    <text id="_The_suspect_is_interviewed_by_a_Commission_for_the_Dissuasion_of_Drug_Addiction._These_commissions_are_made_up_of_three_people:_A_social_worker_a_psychiatrist_and_an_attorney." data-name=" The suspect is interviewed by a Commission for the Dissuasion of Drug Addiction. These commissions are made up of three people: A social worker, a psychiatrist, and an attorney." transform="translate(1932.096 1466.514)" fill="#313131" font-size="32" font-family="OpenSans, Open Sans"><tspan x="61.906" y="34" xml:space="preserve"> The suspect is interviewed by a </tspan><tspan x="5.422" y="77">Commission for the Dissuasion of Drug </tspan><tspan x="43.867" y="120">Addiction. These commissions are </tspan><tspan x="47.633" y="163">made up of three people: A social </tspan><tspan x="7.149" y="206">worker, a psychiatrist, and an attorney.</tspan></text>
    <path id="Path_116" data-name="Path 116" d="M402.348,234.216s17.918-39.286,57.361-61.586S560.2,155.968,560.2,155.968l6.014-29.764,47.336,57.349L549.83,220.876l4.525-30.414s-44.633-.167-73.708,13.118-52.8,52.8-52.8,52.8Z" transform="translate(375.732 334.459)" fill="#8f8f8f" stroke="#3e3e3e" stroke-width="2" opacity="0.43"/>
    <path id="Path_117" data-name="Path 117" d="M0,102.7S17.036,65.344,54.539,44.141,150.085,28.3,150.085,28.3L155.8,0,200.81,54.527,140.224,90.013l4.3-28.917s-42.436-.159-70.081,12.473-50.2,50.2-50.2,50.2Z" transform="matrix(0.883, 0.469, -0.469, 0.883, 1844.333, 437.251)" fill="#8f8f8f" stroke="#3e3e3e" stroke-width="2" opacity="0.43"/>
    <path id="Path_151" data-name="Path 151" d="M505.387,138.4l98.935-62.725-16.661-27.12,66.915,6.317L642.693,126.3l-18.953-25.24-92.393,70.5Z" transform="matrix(0.999, -0.035, 0.035, 0.999, 2019.782, 539.936)" fill="#8f8f8f" stroke="#3e3e3e" stroke-width="2" opacity="0.43"/>
    <path id="Path_152" data-name="Path 152" d="M505.387,138.4l98.935-62.725-16.661-27.12,66.915,6.317L642.693,126.3l-18.953-25.24-92.393,70.5Z" transform="matrix(0.819, 0.574, -0.574, 0.819, 2268.284, 503.867)" fill="#8f8f8f" stroke="#3e3e3e" stroke-width="2" opacity="0.43"/>
    <path id="Path_153" data-name="Path 153" d="M505.387,138.4l98.935-62.725-16.661-27.12,66.915,6.317L642.693,126.3l-18.953-25.24-92.393,70.5Z" transform="matrix(0.326, 0.946, -0.946, 0.326, 2536.488, 626.47)" fill="#8f8f8f" stroke="#3e3e3e" stroke-width="2" opacity="0.43"/>
    <rect id="Rectangle_17" data-name="Rectangle 17" width="270.651" height="73.157" rx="36.578" transform="translate(2727.028 527.819)" fill="#b5dfd1"/>
    <text id="Small_Fines" data-name="Small Fines" transform="translate(2695.74 539.959)" fill="#332f2f" font-size="30" font-family="OpenSans-Bold, Open Sans" font-weight="700"><tspan x="83.768" y="32">Small Fines</tspan></text>
    <rect id="Rectangle_18" data-name="Rectangle 18" width="234.651" height="77.157" rx="38.578" transform="translate(2797.028 881.819)" fill="#b5dfd1"/>
    <text id="Treatment" transform="translate(2712.74 896.959)" fill="#332f2f" font-size="30" font-family="OpenSans-Bold, Open Sans" font-weight="700"><tspan x="122.465" y="32">Treatment</tspan></text>
    <rect id="Rectangle_19" data-name="Rectangle 19" width="354.651" height="76.157" rx="38.078" transform="translate(2719.028 1278.819)" fill="#b5dfd1"/>
    <text id="Community_Service" data-name="Community Service" transform="translate(2695.74 1294.959)" fill="#332f2f" font-size="30" font-family="OpenSans-Bold, Open Sans" font-weight="700"><tspan x="57.199" y="32">Community Service</tspan></text>
  </g>
</svg>
